<mxfile host="1b59a0d5-657e-42c1-ac52-b11c7d7f3ecb" modified="2020-08-02T13:39:34.424Z" agent="5.0 (Windows NT 10.0; Win64; x64) AppleWebKit/537.36 (KHTML, like Gecko) Code/1.47.3 Chrome/78.0.3904.130 Electron/7.3.2 Safari/537.36" etag="g4umLSK97jT2VruRYSMD" version="13.1.3" pages="2">
    <diagram id="6hGFLwfOUW9BJ-s0fimq" name="框架">
        <mxGraphModel dx="876" dy="358" grid="1" gridSize="10" guides="1" tooltips="1" connect="1" arrows="1" fold="1" page="1" pageScale="1" pageWidth="827" pageHeight="1169" math="0" shadow="0">
            <root>
                <mxCell id="0"/>
                <mxCell id="1" parent="0"/>
                <mxCell id="3" value="" style="points=[];aspect=fixed;html=1;align=center;shadow=0;dashed=0;image;image=img/lib/allied_telesis/computer_and_terminals/Server_Desktop.svg;" vertex="1" parent="1">
                    <mxGeometry x="200" y="560" width="42.599999999999994" height="54" as="geometry"/>
                </mxCell>
                <mxCell id="4" value="" style="verticalLabelPosition=bottom;verticalAlign=top;html=1;shape=mxgraph.basic.smiley" vertex="1" parent="1">
                    <mxGeometry x="299.7" y="660" width="39" height="40" as="geometry"/>
                </mxCell>
                <mxCell id="5" value="" style="points=[];aspect=fixed;html=1;align=center;shadow=0;dashed=0;image;image=img/lib/allied_telesis/computer_and_terminals/Server_Desktop.svg;" vertex="1" parent="1">
                    <mxGeometry x="160" y="420" width="42.599999999999994" height="54" as="geometry"/>
                </mxCell>
                <mxCell id="6" value="" style="points=[];aspect=fixed;html=1;align=center;shadow=0;dashed=0;image;image=img/lib/allied_telesis/computer_and_terminals/Server_Desktop.svg;" vertex="1" parent="1">
                    <mxGeometry x="240" y="420" width="42.599999999999994" height="54" as="geometry"/>
                </mxCell>
                <mxCell id="7" value="gatway" style="text;html=1;align=center;verticalAlign=middle;resizable=0;points=[];autosize=1;" vertex="1" parent="1">
                    <mxGeometry x="196.3" y="614" width="50" height="20" as="geometry"/>
                </mxCell>
                <mxCell id="8" value="login" style="text;html=1;align=center;verticalAlign=middle;resizable=0;points=[];autosize=1;" vertex="1" parent="1">
                    <mxGeometry x="160" y="480" width="40" height="20" as="geometry"/>
                </mxCell>
                <mxCell id="9" value="login" style="text;html=1;align=center;verticalAlign=middle;resizable=0;points=[];autosize=1;" vertex="1" parent="1">
                    <mxGeometry x="242.6" y="480" width="40" height="20" as="geometry"/>
                </mxCell>
                <mxCell id="10" value="" style="endArrow=classic;html=1;entryX=0.782;entryY=1.117;entryDx=0;entryDy=0;entryPerimeter=0;exitX=0;exitY=0.25;exitDx=0;exitDy=0;exitPerimeter=0;" edge="1" parent="1" source="4" target="7">
                    <mxGeometry width="50" height="50" relative="1" as="geometry">
                        <mxPoint x="267.4" y="640" as="sourcePoint"/>
                        <mxPoint x="277.4" y="594" as="targetPoint"/>
                    </mxGeometry>
                </mxCell>
                <mxCell id="17" value="" style="endArrow=classic;html=1;exitX=0.166;exitY=-0.052;exitDx=0;exitDy=0;exitPerimeter=0;" edge="1" parent="1" source="3" target="8">
                    <mxGeometry width="50" height="50" relative="1" as="geometry">
                        <mxPoint x="287.4" y="610" as="sourcePoint"/>
                        <mxPoint x="337.4" y="560" as="targetPoint"/>
                    </mxGeometry>
                </mxCell>
                <mxCell id="18" value="" style="endArrow=classic;html=1;exitX=0.714;exitY=-0.083;exitDx=0;exitDy=0;exitPerimeter=0;entryX=0.552;entryY=1.158;entryDx=0;entryDy=0;entryPerimeter=0;" edge="1" parent="1" source="3" target="9">
                    <mxGeometry width="50" height="50" relative="1" as="geometry">
                        <mxPoint x="287.4" y="610" as="sourcePoint"/>
                        <mxPoint x="337.4" y="560" as="targetPoint"/>
                    </mxGeometry>
                </mxCell>
                <mxCell id="19" value="" style="points=[];aspect=fixed;html=1;align=center;shadow=0;dashed=0;image;image=img/lib/allied_telesis/computer_and_terminals/Server_Desktop.svg;" vertex="1" parent="1">
                    <mxGeometry x="347.4" y="426" width="42.599999999999994" height="54" as="geometry"/>
                </mxCell>
                <mxCell id="21" value="balance" style="text;html=1;align=center;verticalAlign=middle;resizable=0;points=[];autosize=1;" vertex="1" parent="1">
                    <mxGeometry x="338.70000000000005" y="480" width="60" height="20" as="geometry"/>
                </mxCell>
                <mxCell id="22" value="" style="endArrow=classic;html=1;exitX=0.851;exitY=0.025;exitDx=0;exitDy=0;exitPerimeter=0;entryX=-0.086;entryY=0.485;entryDx=0;entryDy=0;entryPerimeter=0;" edge="1" parent="1" source="5" target="19">
                    <mxGeometry width="50" height="50" relative="1" as="geometry">
                        <mxPoint x="327.4" y="520" as="sourcePoint"/>
                        <mxPoint x="377.4" y="470" as="targetPoint"/>
                        <Array as="points">
                            <mxPoint x="277.4" y="410"/>
                        </Array>
                    </mxGeometry>
                </mxCell>
                <mxCell id="23" value="" style="endArrow=classic;html=1;exitX=0.968;exitY=0.519;exitDx=0;exitDy=0;exitPerimeter=0;" edge="1" parent="1" source="6">
                    <mxGeometry width="50" height="50" relative="1" as="geometry">
                        <mxPoint x="327.4" y="520" as="sourcePoint"/>
                        <mxPoint x="337.4" y="460" as="targetPoint"/>
                    </mxGeometry>
                </mxCell>
                <mxCell id="28" value="" style="points=[];aspect=fixed;html=1;align=center;shadow=0;dashed=0;image;image=img/lib/allied_telesis/computer_and_terminals/Server_Desktop.svg;" vertex="1" parent="1">
                    <mxGeometry x="398.7" y="558" width="42.599999999999994" height="54" as="geometry"/>
                </mxCell>
                <mxCell id="29" value="gatway" style="text;html=1;align=center;verticalAlign=middle;resizable=0;points=[];autosize=1;" vertex="1" parent="1">
                    <mxGeometry x="427.4" y="614" width="50" height="20" as="geometry"/>
                </mxCell>
                <mxCell id="30" value="" style="points=[];aspect=fixed;html=1;align=center;shadow=0;dashed=0;image;image=img/lib/allied_telesis/computer_and_terminals/Server_Desktop.svg;" vertex="1" parent="1">
                    <mxGeometry x="488.79999999999995" y="420" width="42.599999999999994" height="54" as="geometry"/>
                </mxCell>
                <mxCell id="31" value="lobby" style="text;html=1;align=center;verticalAlign=middle;resizable=0;points=[];autosize=1;" vertex="1" parent="1">
                    <mxGeometry x="500" y="474" width="40" height="20" as="geometry"/>
                </mxCell>
                <mxCell id="32" value="" style="endArrow=classic;html=1;exitX=0.325;exitY=-0.006;exitDx=0;exitDy=0;exitPerimeter=0;" edge="1" parent="1" source="28">
                    <mxGeometry width="50" height="50" relative="1" as="geometry">
                        <mxPoint x="337.4" y="500" as="sourcePoint"/>
                        <mxPoint x="387.4" y="450" as="targetPoint"/>
                    </mxGeometry>
                </mxCell>
                <mxCell id="33" value="" style="endArrow=classic;html=1;entryX=-0.125;entryY=0.997;entryDx=0;entryDy=0;entryPerimeter=0;" edge="1" parent="1" target="28">
                    <mxGeometry width="50" height="50" relative="1" as="geometry">
                        <mxPoint x="340" y="670" as="sourcePoint"/>
                        <mxPoint x="387.4" y="540" as="targetPoint"/>
                    </mxGeometry>
                </mxCell>
                <mxCell id="36" value="" style="endArrow=classic;html=1;exitX=0.951;exitY=-0.006;exitDx=0;exitDy=0;exitPerimeter=0;entryX=0.369;entryY=0.982;entryDx=0;entryDy=0;entryPerimeter=0;" edge="1" parent="1" source="28" target="30">
                    <mxGeometry width="50" height="50" relative="1" as="geometry">
                        <mxPoint x="447.4" y="590" as="sourcePoint"/>
                        <mxPoint x="497.4" y="540" as="targetPoint"/>
                    </mxGeometry>
                </mxCell>
                <mxCell id="37" value="" style="points=[];aspect=fixed;html=1;align=center;shadow=0;dashed=0;image;image=img/lib/allied_telesis/computer_and_terminals/Server_Desktop.svg;" vertex="1" parent="1">
                    <mxGeometry x="613.7" y="420" width="42.599999999999994" height="54" as="geometry"/>
                </mxCell>
                <mxCell id="38" value="" style="points=[];aspect=fixed;html=1;align=center;shadow=0;dashed=0;image;image=img/lib/allied_telesis/computer_and_terminals/Server_Desktop.svg;" vertex="1" parent="1">
                    <mxGeometry x="556.1" y="330" width="42.599999999999994" height="54" as="geometry"/>
                </mxCell>
                <mxCell id="39" value="fight" style="text;html=1;align=center;verticalAlign=middle;resizable=0;points=[];autosize=1;" vertex="1" parent="1">
                    <mxGeometry x="558.6999999999999" y="384" width="40" height="20" as="geometry"/>
                </mxCell>
                <mxCell id="40" value="center" style="text;html=1;align=center;verticalAlign=middle;resizable=0;points=[];autosize=1;" vertex="1" parent="1">
                    <mxGeometry x="610" y="480" width="61" height="34" as="geometry"/>
                </mxCell>
                <mxCell id="7GXhM_GexgIMQGCUP7hf-45" value="Text" style="text;html=1;align=center;verticalAlign=middle;resizable=0;points=[];autosize=1;" vertex="1" parent="40">
                    <mxGeometry x="21" y="14" width="40" height="20" as="geometry"/>
                </mxCell>
                <mxCell id="41" value="" style="endArrow=classic;html=1;exitX=0.973;exitY=0.593;exitDx=0;exitDy=0;exitPerimeter=0;entryX=0;entryY=0.593;entryDx=0;entryDy=0;entryPerimeter=0;" edge="1" parent="1" source="30" target="37">
                    <mxGeometry width="50" height="50" relative="1" as="geometry">
                        <mxPoint x="480" y="530" as="sourcePoint"/>
                        <mxPoint x="530" y="480" as="targetPoint"/>
                    </mxGeometry>
                </mxCell>
                <mxCell id="43" value="" style="endArrow=classic;html=1;entryX=-0.027;entryY=0.843;entryDx=0;entryDy=0;entryPerimeter=0;exitX=0.799;exitY=-0.099;exitDx=0;exitDy=0;exitPerimeter=0;" edge="1" parent="1" source="30" target="38">
                    <mxGeometry width="50" height="50" relative="1" as="geometry">
                        <mxPoint x="560" y="420" as="sourcePoint"/>
                        <mxPoint x="530" y="480" as="targetPoint"/>
                    </mxGeometry>
                </mxCell>
                <mxCell id="44" value="" style="endArrow=classic;html=1;exitX=0.235;exitY=0.074;exitDx=0;exitDy=0;exitPerimeter=0;entryX=0.98;entryY=0.904;entryDx=0;entryDy=0;entryPerimeter=0;" edge="1" parent="1" source="37" target="38">
                    <mxGeometry width="50" height="50" relative="1" as="geometry">
                        <mxPoint x="480" y="530" as="sourcePoint"/>
                        <mxPoint x="610" y="384" as="targetPoint"/>
                    </mxGeometry>
                </mxCell>
                <mxCell id="7GXhM_GexgIMQGCUP7hf-44" value="用户" style="text;html=1;align=center;verticalAlign=middle;resizable=0;points=[];autosize=1;" vertex="1" parent="1">
                    <mxGeometry x="299.7" y="700" width="40" height="20" as="geometry"/>
                </mxCell>
            </root>
        </mxGraphModel>
    </diagram>
    <diagram id="V7Noxkl1b5PW5oish9nU" name="流程图">
        <mxGraphModel dx="423" dy="358" grid="1" gridSize="10" guides="1" tooltips="1" connect="1" arrows="1" fold="1" page="1" pageScale="1" pageWidth="827" pageHeight="1169" math="0" shadow="0">
            <root>
                <mxCell id="JiMyFgOw_hyCCHFq8Kqr-0"/>
                <mxCell id="JiMyFgOw_hyCCHFq8Kqr-1" parent="JiMyFgOw_hyCCHFq8Kqr-0"/>
            </root>
        </mxGraphModel>
    </diagram>
</mxfile>